<svg width="48" height="48" viewBox="0 0 48 48" fill="none" xmlns="http://www.w3.org/2000/svg">
<path d="M1.17665 16.5626C4.30743 6.94875 13.3415 0 24 0C37.2548 0 48 10.7453 48 24C48 34.6585 41.0512 43.6927 31.4375 46.8234L1.17665 16.5626Z" fill="#00A085"/>
<path d="M1.90735e-05 24.0001C1.90735e-05 21.4038 0.413925 18.9045 1.17667 16.5627L10.9566 6.78271L37.0435 41.2175L31.4375 46.8236C29.0956 47.5862 26.5963 48.0001 24 48.0001C10.7452 48.0001 1.90735e-05 37.2549 1.90735e-05 24.0001Z" fill="#007964"/>
<path d="M10.9564 34.9566L19.3042 32.8696L17.2172 41.2174H10.9564V34.9566Z" fill="#6FAEE8"/>
<path d="M10.9564 6.78271V34.9567L14.8872 37.0435L17.2172 41.2175H23.9998L30.2607 23.8957L23.9998 6.78271H10.9564Z" fill="#F2F2F2"/>
<path d="M24 6.78271V37.0434L25.0435 38.0871L24 39.1305V41.2175H37.0435V6.78271H24Z" fill="white"/>
<path d="M17.2173 41.2174V34.9565H10.9565L17.2173 41.2174Z" fill="white"/>
<path d="M24 8.86963L25.0435 9.91307L24 10.9566H13.0435V8.86963H24Z" fill="#458FDE"/>
<path d="M24 37.0435H34.9565V39.1304H24V37.0435Z" fill="#BCDEF7"/>
<path d="M13.0435 13.0435V32.8695H24L25.0435 31.8261L24 30.7826H20.6087V19.3044H24L25.0435 18.2609L24 17.2175H15.1304V15.1305H24L25.0435 14.0871L24 13.0435H13.0435ZM15.1304 30.7826V19.3044H18.5217V30.7826H15.1304Z" fill="#458FDE"/>
<path d="M24 30.7826V32.8696H34.9565V13.0435H24V15.1304H32.8696V17.2174H24V19.3044H32.8696V30.7826H24Z" fill="#6FAEE8"/>
<path d="M24 8.86963H34.9565V10.9566H24V8.86963Z" fill="#6FAEE8"/>
</svg>
