<svg width="48" height="48" viewBox="0 0 48 48" fill="none" xmlns="http://www.w3.org/2000/svg">
<g clip-path="url(#clip0_816_26)">
<path d="M24 48C37.2548 48 48 37.2548 48 24C48 10.7452 37.2548 0 24 0C10.7452 0 0 10.7452 0 24C0 37.2548 10.7452 48 24 48Z" fill="#FF4A4A"/>
<path d="M47.9999 24.0004C47.9999 22.5537 47.8718 21.137 47.6266 19.7609L35.0599 7.19416L19.7574 7.73632L17.2022 5.11816L10.1558 38.0968L19.6697 47.6107C21.0743 47.8667 22.5215 48.0004 23.9999 48.0004C37.2548 48.0004 47.9999 37.2552 47.9999 24.0004Z" fill="#D01273"/>
<path d="M13.4087 10.3721H38.3128V41.2747H13.4087V10.3721Z" fill="#D8F1FB"/>
<path d="M22.6077 10.3721H38.3127V41.2749H22.6077V10.3721Z" fill="#BCEAF9"/>
<path d="M10.1558 7.19482H35.0599V38.0974H10.1558V7.19482Z" fill="white"/>
<path d="M22.6077 7.19336H35.0595V38.0962H22.6077V7.19336Z" fill="#ECF9FB"/>
<path d="M14.0784 16.5537H22.6079V19.3662H14.0784V16.5537Z" fill="#0A617D"/>
<path d="M14.0784 22.6665H31.1376V25.479H14.0784V22.6665Z" fill="#0A617D"/>
<path d="M14.0784 28.7798H31.1376V31.5923H14.0784V28.7798Z" fill="#0A617D"/>
<path d="M14.551 11.4632V6.10585C14.551 5.27203 15.227 4.59619 16.0607 4.59619C16.8945 4.59619 17.5703 5.27213 17.5703 6.10585V11.4632C17.5703 12.297 16.8944 12.9728 16.0607 12.9728C15.227 12.9728 14.551 12.2969 14.551 11.4632Z" fill="#FFDE1F"/>
<path d="M25.7268 12.2627H31.1375V19.3659H25.7268V12.2627Z" fill="#1ED3C6"/>
<path d="M22.6077 22.667H31.137V25.4795H22.6077V22.667Z" fill="#08475E"/>
<path d="M22.6077 28.7793H31.137V31.5918H22.6077V28.7793Z" fill="#08475E"/>
</g>
<defs>
<clipPath id="clip0_816_26">
<rect width="48" height="48" fill="white"/>
</clipPath>
</defs>
</svg>
