<svg width="48" height="48" viewBox="0 0 48 48" fill="none" xmlns="http://www.w3.org/2000/svg">
<path d="M24 48C37.2548 48 48 37.2548 48 24C48 10.7452 37.2548 0 24 0C10.7452 0 0 10.7452 0 24C0 37.2548 10.7452 48 24 48Z" fill="#EC3D93"/>
<path d="M48 23.9997C48 22.1782 47.796 20.4046 47.4116 18.6993L33.3685 4.65625L8.18311 33.3895L12.2507 37.4571L11.2058 39.7337L14.6879 43.2157L14.6313 43.343L18.6994 47.4111C20.4047 47.7956 22.1785 47.9997 24 47.9997C37.2549 47.9997 48 37.2545 48 23.9997Z" fill="#BC00A2"/>
<path d="M11.2056 32.5537H36.7943V39.7335H11.2056V32.5537Z" fill="#353535"/>
<path d="M24 32.5537H36.7941V39.734H24V32.5537Z" fill="#232323"/>
<path d="M11.2056 9.82617H36.7943V17.1385H11.2056V9.82617Z" fill="#ACE233"/>
<path d="M24 9.82666H36.7941V17.1382H24V9.82666Z" fill="#00CB75"/>
<path d="M14.6313 4.65625H33.369V17.6927H14.6313V4.65625Z" fill="white"/>
<path d="M24 4.65625H33.3684V17.6931H24V4.65625Z" fill="#E7F9FB"/>
<path d="M14.6313 30.3066H33.369V43.343H14.6313V30.3066Z" fill="white"/>
<path d="M24 30.3062H33.3684V43.343H24V30.3062Z" fill="#E7F9FB"/>
<path d="M8.18311 15.7524H39.8171V33.3894H8.18311V15.7524Z" fill="#4F4F51"/>
<path d="M24 15.7524H39.8166V33.3896H24V15.7524Z" fill="#353535"/>
<path d="M11.5952 27.3008H14.6314V30.1133H11.5952V27.3008Z" fill="#ACE233"/>
<path d="M11.5952 21.6758H14.6314V24.4883H11.5952V21.6758Z" fill="#FFE705"/>
</svg>
